<?xml version="1.0" standalone="no"?>
<!DOCTYPE svg PUBLIC "-//W3C//DTD SVG 20010904//EN"
 "http://www.w3.org/TR/2001/REC-SVG-20010904/DTD/svg10.dtd">
<svg version="1.0" xmlns="http://www.w3.org/2000/svg"
 width="1200.000000pt" height="1200.000000pt" viewBox="0 0 1200.000000 1200.000000"
 preserveAspectRatio="xMidYMid meet">

<g transform="translate(0.000000,1200.000000) scale(0.100000,-0.100000)"
fill="#000000" stroke="none">
<path d="M3000 8175 l0 -75 3000 0 3000 0 0 75 0 75 -3000 0 -3000 0 0 -75z"/>
<path d="M6130 7615 l0 -55 80 0 80 0 0 -315 0 -315 -110 0 -110 0 0 -55 0
-55 293 2 292 3 0 50 0 50 -102 3 -103 3 0 369 0 370 -160 0 -160 0 0 -55z"/>
<path d="M8390 7610 l0 -60 80 0 80 0 0 60 0 60 -80 0 -80 0 0 -60z"/>
<path d="M6921 7520 l-24 -80 -53 0 -54 0 0 -55 0 -55 50 0 50 0 0 -197 c0
-186 2 -200 23 -237 36 -64 81 -81 212 -81 61 0 122 4 138 8 25 7 27 11 27 57
l0 49 -79 -6 c-87 -6 -122 -1 -145 23 -13 13 -16 46 -16 200 l0 184 110 0 110
0 0 55 0 55 -110 0 -110 0 0 80 0 80 -53 0 -53 0 -23 -80z"/>
<path d="M3280 7205 l0 -385 85 0 85 0 0 123 0 123 35 34 c19 18 36 32 39 29
2 -2 43 -73 91 -156 l88 -153 100 0 99 0 -14 23 c-8 12 -70 111 -137 219
l-123 198 98 122 c54 68 113 142 132 166 l34 42 -98 0 -99 0 -120 -166 -120
-166 -3 166 -2 166 -85 0 -85 0 0 -385z"/>
<path d="M5017 7435 c-47 -16 -82 -48 -108 -95 -16 -30 -18 -32 -19 -12 0 13
-5 43 -11 68 l-11 44 -77 0 -78 0 13 -62 c9 -42 14 -146 14 -310 l0 -248 80 0
80 0 0 134 c0 161 11 228 48 281 45 64 82 80 184 78 l88 -2 0 63 c0 63 0 64
-31 70 -51 10 -131 6 -172 -9z"/>
<path d="M7655 7441 c-46 -12 -90 -37 -117 -69 -26 -31 -54 -90 -46 -97 2 -2
40 -7 84 -11 l79 -6 10 33 c12 41 52 63 96 54 37 -8 57 -38 65 -97 l6 -45
-111 -5 c-128 -6 -191 -30 -228 -86 -48 -73 -42 -181 14 -243 79 -87 221 -77
306 21 25 30 37 38 37 26 0 -26 28 -74 51 -86 22 -12 116 -15 149 -5 16 5 20
15 20 46 0 35 -3 39 -24 39 -50 0 -56 19 -56 180 0 185 -11 240 -57 291 -54
59 -174 85 -278 60z m170 -378 c-13 -87 -48 -128 -118 -140 -49 -8 -77 22 -77
81 0 24 3 52 6 61 11 27 63 44 133 45 l63 0 -7 -47z"/>
<path d="M3980 7206 c0 -240 4 -274 43 -330 25 -36 90 -65 142 -66 56 0 123
37 162 88 l33 44 0 -45 c0 -75 3 -77 87 -77 l76 0 -7 68 c-3 37 -6 176 -6 310
l0 242 -80 0 -80 0 0 -197 c0 -172 -3 -203 -19 -239 -32 -69 -89 -93 -140 -58
-45 32 -51 68 -51 289 l0 205 -80 0 -80 0 0 -234z"/>
<path d="M5380 7206 c0 -240 4 -274 43 -330 25 -36 90 -65 142 -66 56 0 123
37 162 88 l33 44 0 -45 c0 -75 3 -77 87 -77 l76 0 -7 68 c-3 37 -6 176 -6 310
l0 242 -80 0 -80 0 0 -197 c0 -172 -3 -203 -19 -239 -32 -69 -89 -93 -140 -58
-45 32 -51 68 -51 289 l0 205 -80 0 -80 0 0 -234z"/>
<path d="M8230 7385 l0 -55 80 0 80 0 0 -200 0 -200 -110 0 -110 0 0 -55 0
-55 293 2 292 3 0 50 0 50 -102 3 -103 3 0 254 0 255 -160 0 -160 0 0 -55z"/>
<path d="M5523 5915 c-229 -62 -381 -288 -346 -516 17 -110 60 -189 158 -289
71 -72 85 -92 85 -119 0 -24 11 -44 47 -82 26 -28 62 -57 80 -64 18 -8 33 -21
33 -29 0 -24 68 -95 112 -117 21 -11 38 -26 38 -34 0 -23 80 -106 118 -122 17
-7 32 -19 32 -27 0 -24 89 -114 124 -126 27 -9 41 -8 68 3 39 17 178 158 178
181 0 9 7 16 16 16 22 0 119 95 134 130 7 17 19 30 27 30 21 0 122 99 129 127
4 13 16 26 29 29 13 3 49 32 79 64 58 61 67 86 45 132 -9 20 -4 33 35 91 60
90 80 158 79 272 -1 99 -21 170 -68 245 -68 107 -200 192 -333 212 -130 21
-281 -25 -376 -112 l-46 -42 -47 42 c-118 103 -284 144 -430 105z m229 -75
c65 -20 140 -63 173 -100 18 -20 17 -22 -82 -123 -55 -56 -106 -113 -113 -126
-16 -32 -14 -113 4 -149 32 -62 113 -100 183 -87 31 6 60 29 166 133 l129 127
214 -219 c118 -120 214 -226 214 -234 0 -17 -68 -92 -84 -92 -5 0 -64 54 -132
121 -123 122 -144 134 -168 97 -9 -15 7 -36 112 -141 67 -67 122 -129 122
-137 0 -16 -69 -90 -84 -90 -5 0 -64 54 -132 121 -123 122 -144 134 -168 97
-9 -15 8 -37 112 -141 67 -68 122 -130 122 -138 0 -17 -80 -99 -96 -99 -5 0
-28 18 -49 40 -22 22 -53 44 -70 48 -19 5 -31 15 -33 29 -5 32 -68 100 -112
119 -26 12 -40 24 -40 36 0 27 -76 105 -115 119 -22 8 -36 21 -40 37 -3 13
-28 46 -55 73 -45 45 -53 49 -95 49 -44 0 -51 -4 -111 -62 l-65 -62 -73 73
c-139 138 -176 283 -115 447 41 109 127 190 248 231 82 28 150 29 233 3z m730
-6 c257 -90 354 -396 197 -614 l-31 -43 -212 212 c-116 116 -217 211 -225 211
-8 0 -78 -63 -156 -140 -155 -153 -174 -162 -229 -119 -37 29 -49 64 -36 103
16 50 306 328 383 367 89 46 218 55 309 23z m-802 -720 c22 -20 40 -44 40 -52
0 -21 -120 -142 -140 -142 -9 0 -33 18 -54 39 -31 32 -36 42 -28 57 11 20 127
134 136 134 3 0 24 -16 46 -36z m157 -156 c18 -18 33 -41 33 -52 0 -25 -117
-146 -141 -146 -16 0 -89 72 -89 87 0 14 135 143 149 143 8 0 30 -14 48 -32z
m157 -158 c20 -22 36 -43 36 -46 0 -15 -135 -144 -150 -144 -16 0 -90 71 -90
86 0 15 135 144 150 144 10 0 34 -18 54 -40z m146 -146 c22 -20 40 -44 40 -54
0 -15 -129 -150 -144 -150 -15 0 -86 74 -86 90 0 15 129 150 144 150 3 0 24
-16 46 -36z"/>
<path d="M3900 3825 l0 -75 2100 0 2100 0 0 75 0 75 -2100 0 -2100 0 0 -75z"/>
</g>
</svg>
